<svg version="1.2" xmlns="http://www.w3.org/2000/svg" viewBox="0 0 800 800" width="800" height="800">
	<title>Proyecto nuevo</title>
	<style>
		.s0 { fill: #ffffff } 
	</style>
	<path id="Maria Mellado" class="s0" aria-label="Maria Mellado"  d="m53 109.8q0-1.6 0-4.2 0.1-2.6 0.1-5.8 0-3.3 0.1-6.9 0.1-3.6 0.2-7.1 0.1-3.6 0.3-6.9 1.5-0.1 3.5-0.2 2-0.1 4-0.2 2 0 3.3 0 1.4 0 1.5 0 0 0.1 0.3 1 0.2 1 0.6 2.5 0.4 1.5 0.9 3.3 0.4 1.8 0.9 3.6 0.5 1.9 0.8 3.5 0.5 1.7 0.8 2.9 0.2 1.2 0.4 1.7l-1.2 0.1q0.3-0.6 0.7-1.9 0.3-1.4 0.8-3.2 0.6-1.8 1.1-3.8 0.6-2 1.1-3.9 0.5-1.9 0.8-3.4 0.4-1.5 0.5-2.3 1.3 0 3.3 0.1 2 0 4.1 0.1 2.1 0.2 3.5 0.4 0.5 2.2 0.7 5.6 0.2 3.3 0.2 7.1 0 3.2-0.1 6.5-0.1 3.4-0.3 6.3-0.2 3-0.3 5.1-1.6 0-3.3-0.1-1.8 0-3.4-0.1-1.6-0.1-2.5-0.2 0.1-1.1 0.2-3.2 0.1-2.1 0.2-4.4 0.1-1.5 0.2-2.8 0-1.3 0.1-2.4 0.1-1.1 0.1-1.8-0.2 0.9-0.6 2.1-0.4 1.3-0.9 2.7-0.5 1.5-1 3-0.5 1.5-1 2.9-0.5 1.3-0.9 2.3-0.4 1-0.6 1.5-0.4 0.1-1.3 0.1-0.8 0-1.2 0-0.8 0-1.7-0.1-0.8 0-1.8-0.1-0.1-0.5-0.3-1.4-0.2-0.9-0.4-2.1-0.3-1.3-0.6-2.7-0.3-1.5-0.6-3-0.3-1.5-0.7-3-0.2-1.4-0.5-2.6-0.3-1.2-0.5-2.1 0 2.3 0 4.7 0.1 2.4 0.1 4.6 0 2.2 0 4 0 1.7 0 2.9 0 1.1 0 1.2-1.1 0-2.7 0.1-1.7 0-3.5 0-1.8 0-3.5 0zm47.7 0.6q-3 0-5.6-0.8-2.5-0.9-4.1-2.8-1.5-1.9-1.5-5 0-3.3 1.8-5.1 1.9-1.9 4.8-2.7 2.8-0.9 6.1-0.9 1 0 2 0.2 0.9 0.2 1.7 0.4 0.7 0.3 1.1 0.6 0-0.5-0.2-1.2-0.3-0.6-0.7-1-0.7-0.6-1.6-1-0.9-0.5-2.6-0.5-1.6 0-3 0.8-1.4 0.8-2.1 1.7l-7.5-4.8q1.2-1.6 3.1-2.7 2-1.2 4.5-1.8 2.5-0.7 5.2-0.7 4.6 0 7.3 1.4 2.8 1.3 4.1 3.9 0.7 1.2 1.1 2.6 0.4 1.5 0.6 3.2 0.1 1.1 0.1 2.4 0.1 1.2 0.1 2.6 0 2.1 0.4 2.8 0.4 0.6 1.1 0.6 0.5 0 1-0.1 0.5-0.2 0.7-0.4l2.7 6.5q-0.3 0.6-1.6 1.1-1.2 0.6-3.3 0.6-1.5 0-2.9-0.5-1.4-0.4-2.3-1.2-1-0.9-1.1-2.1-0.4 1-1.5 1.9-1.2 0.9-3.2 1.4-1.9 0.6-4.7 0.6zm2.2-7.2q0.9 0 1.9-0.3 1-0.2 1.9-0.6 0.8-0.4 1.1-0.7-0.1-0.3-0.1-0.8-0.1-0.6-0.1-0.8-0.4-0.2-1.6-0.4-1.2-0.2-2.3-0.2-1 0-2.1 0.2-1 0.1-1.6 0.5-0.7 0.4-0.7 1.2 0 0.6 0.4 1 0.4 0.5 1.2 0.7 0.8 0.2 2 0.2zm28.1-15.7q0.4-1.1 1.5-2.1 1-1 2.5-1.7 1.5-0.6 3.4-0.6 1.1 0 2.2 0.2 1.1 0.3 1.5 0.6l-1.9 9.9q-0.5-0.2-1.3-0.5-0.9-0.2-1.8-0.2-1 0-1.8 0.3-0.8 0.3-1.6 0.8-0.7 0.6-1.3 1.4 0.2 1.2 0.5 3.3 0.3 2 0.5 4.2 0.3 2.2 0.5 4 0.2 1.8 0.2 2.6-2.2 0.3-5 0.4-2.8 0.1-5.5 0.1 0-1.9-0.1-4.7-0.1-2.7-0.3-5.8-0.2-3-0.5-5.9-0.3-3-0.6-5.3-0.3-2.4-0.6-3.7 1.6-0.5 3.4-0.8 1.8-0.4 3.2-0.6 1.5-0.2 1.8-0.2 0.3 0.6 0.7 2 0.4 1.3 0.4 2.3zm23.3 22.4q-0.5 0.1-2 0.2-1.4 0.1-3.1 0.1-1.2 0-2.4-0.1-1.2-0.1-2.4-0.2 0.1-0.7 0.3-2.6 0.2-2 0.3-4.7 0.2-2.7 0.4-5.6 0.2-2.8 0.3-5.4 0.1-2.5 0.1-4 0.6-0.1 1.8-0.1 1.3-0.1 2.6-0.1 1.5-0.1 2.7-0.1 1.3-0.1 2-0.1 0.2 0.9 0.3 2.8 0.1 2 0.1 4.3 0 2.3-0.1 4.7 0 2.4-0.2 4.6-0.1 2.2-0.3 3.9-0.2 1.7-0.4 2.4zm-3.7-25.4q-2.6 0-4.5-1.5-1.8-1.5-1.8-4.1 0-1.7 0.9-2.9 0.8-1.2 2.2-1.9 1.4-0.7 2.9-0.7 2.5 0 4.1 1.6 1.7 1.5 1.7 4 0 2.3-1.6 3.9-1.6 1.6-3.9 1.6zm19.7 25.9q-3.1 0-5.6-0.8-2.5-0.9-4.1-2.8-1.5-1.9-1.5-5 0-3.3 1.8-5.1 1.8-1.9 4.8-2.7 2.9-0.9 6-0.9 1.1 0 2 0.2 1 0.2 1.8 0.4 0.7 0.3 1.1 0.6 0-0.5-0.2-1.2-0.3-0.6-0.7-1-0.6-0.6-1.6-1-0.9-0.5-2.6-0.5-1.6 0-3 0.8-1.4 0.8-2.1 1.7l-7.5-4.8q1.2-1.6 3.2-2.7 2-1.2 4.4-1.8 2.5-0.7 5.2-0.7 4.6 0 7.3 1.4 2.7 1.3 4.1 3.9 0.6 1.2 1.1 2.6 0.4 1.5 0.5 3.2 0.2 1.1 0.2 2.4 0.1 1.3 0.1 2.6 0 2.1 0.4 2.8 0.4 0.6 1.1 0.6 0.5 0 1-0.1 0.5-0.2 0.7-0.4l2.7 6.5q-0.3 0.6-1.6 1.1-1.2 0.6-3.3 0.6-1.4 0-2.9-0.5-1.4-0.4-2.4-1.2-0.9-0.9-1-2.1-0.4 1-1.5 1.9-1.2 0.9-3.2 1.4-1.9 0.6-4.7 0.6zm2.2-7.2q0.9 0 1.9-0.3 1-0.2 1.8-0.6 0.9-0.4 1.2-0.7-0.1-0.2-0.2-0.8 0-0.6 0-0.8-0.5-0.2-1.6-0.4-1.2-0.2-2.3-0.2-1.1 0-2.1 0.2-1 0.1-1.6 0.5-0.7 0.4-0.7 1.2 0 0.6 0.4 1.1 0.4 0.4 1.2 0.6 0.9 0.2 2 0.2zm35.2 6.6q0-1.6 0-4.2 0-2.6 0-5.8 0.1-3.3 0.2-6.9 0.1-3.6 0.2-7.1 0.1-3.6 0.2-6.9 1.5-0.1 3.6-0.2 2-0.1 3.9-0.2 2 0 3.4 0 1.3 0 1.4 0 0.1 0.1 0.4 1 0.2 1 0.6 2.5 0.4 1.5 0.8 3.3 0.5 1.8 0.9 3.6 0.5 1.9 0.9 3.5 0.4 1.7 0.7 2.9 0.3 1.2 0.4 1.7l-1.1 0.1q0.2-0.6 0.6-1.9 0.4-1.4 0.9-3.2 0.5-1.8 1-3.8 0.6-2 1.1-3.9 0.5-1.9 0.9-3.4 0.4-1.5 0.5-2.3 1.3 0 3.3 0.1 2 0 4.1 0.2 2 0.1 3.4 0.3 0.5 2.2 0.7 5.6 0.3 3.3 0.3 7.1 0 3.2-0.2 6.5-0.1 3.4-0.2 6.3-0.2 3-0.4 5.1-1.5 0-3.3-0.1-1.8 0-3.3-0.1-1.6-0.1-2.5-0.2 0-1 0.1-3.2 0.2-2.1 0.3-4.4 0.1-1.4 0.1-2.8 0.1-1.3 0.1-2.4 0.1-1.1 0.2-1.7-0.3 0.8-0.7 2-0.4 1.3-0.9 2.7-0.4 1.5-1 3-0.5 1.5-1 2.9-0.5 1.3-0.8 2.3-0.4 1.1-0.6 1.6-0.5 0-1.3 0-0.9 0-1.3 0-0.8 0-1.6-0.1-0.8 0-1.9-0.1-0.1-0.5-0.2-1.4-0.2-0.9-0.5-2.1-0.3-1.3-0.5-2.7-0.4-1.5-0.7-3-0.3-1.5-0.6-3-0.3-1.4-0.6-2.6-0.2-1.2-0.5-2.1 0.1 2.3 0.1 4.7 0 2.4 0 4.6 0 2.2 0 4 0.1 1.8 0.1 2.9 0 1.1 0 1.2-1.1 0-2.8 0.1-1.6 0-3.5 0-1.8 0-3.4 0zm61.6-3.5q-0.8 0.9-1.9 1.7-1.2 0.8-2.6 1.3-1.5 0.5-3.3 0.8-1.9 0.3-4.1 0.3-3.8 0-6.8-1.4-3-1.4-4.7-4.1-1.7-2.8-1.7-7 0-4.4 1.7-7.6 1.7-3.3 4.9-5.1 3.1-1.8 7.3-1.8 5.4 0 8.5 2.9 3.2 2.8 3.2 7.9 0 1-0.1 1.8-0.1 0.7-0.3 1.6-0.4 0-1.7 0-1.4 0-3.1-0.1-1.6 0-3 0-1.4 0-1.8 0-1.9 0-3.6 0.1-1.6 0.2-2.5 0.4 0 0.3 0 0.6 0.1 0.3 0.2 0.6 0.2 0.7 0.8 1.1 0.6 0.5 1.5 0.8 0.8 0.2 1.8 0.2 0.7 0 1.4-0.1 0.7-0.1 1.3-0.4 0.7-0.2 1.4-0.7 0.7-0.4 1.5-1.1 0.1 0.1 0.8 0.8 0.8 0.8 1.7 1.9 1 1.1 1.9 2.3 0.8 1.2 1.3 2.3zm-15.2-13.9q0.7-0.1 1.8-0.2 1.2-0.1 2.7-0.1 0.9 0 1.6 0 0.8 0 1.1 0.1 0-0.4-0.1-0.8-0.2-0.6-0.7-1.1-0.4-0.5-1.1-0.8-0.8-0.3-1.6-0.3-1.2 0-2 0.6-0.8 0.6-1.2 1.3-0.4 0.8-0.5 1.3zm33.5 16.7q-0.7 0.7-3 1.4-2.1 0.6-4.7 0.6-3.2 0-4.9-1.4-1.7-1.4-2.3-3.9-0.6-2.6-0.6-6.1 0-3.1 0-5.9 0.1-2.9 0.1-5.5 0.2-2.7 0.3-5.1 0.1-2.5 0.2-4.7 0.1-2.2 0.3-4.2 2.2-0.2 4-0.2 1.2 0 2.4 0.1 1.1 0 2.6 0.2-0.2 2.4-0.4 5.2-0.1 2.7-0.3 5.4-0.1 2.8-0.2 5.2-0.2 2.5-0.2 4.3-0.1 1.9-0.1 2.9 0 1.4 0.1 2.5 0.1 1.2 0.5 1.9 0.4 0.6 1.2 0.6 0.7 0 1.2-0.3 0.6-0.3 0.9-0.8 0.2 0.4 0.6 1.5 0.4 1.2 0.9 2.5 0.5 1.4 0.9 2.5 0.5 1 0.5 1.3zm16.2 0q-0.8 0.7-3 1.4-2.2 0.6-4.7 0.6-3.2 0-5-1.4-1.6-1.4-2.3-3.9-0.6-2.6-0.6-6.1 0-3.1 0-5.9 0.1-2.9 0.2-5.5 0.1-2.7 0.2-5.1 0.1-2.5 0.2-4.7 0.2-2.2 0.3-4.2 2.2-0.2 4-0.2 1.2 0 2.4 0.1 1.1 0 2.6 0.2-0.1 2.4-0.3 5.2-0.2 2.7-0.3 5.4-0.2 2.8-0.3 5.2-0.1 2.5-0.2 4.3-0.1 1.9-0.1 2.9 0 1.4 0.1 2.5 0.1 1.2 0.5 1.9 0.4 0.6 1.2 0.6 0.8 0 1.3-0.3 0.5-0.3 0.8-0.8 0.2 0.4 0.6 1.5 0.5 1.2 1 2.5 0.5 1.4 0.9 2.5 0.4 1 0.5 1.3zm11.9 1.3q-3.1 0-5.6-0.8-2.6-0.9-4.1-2.8-1.5-1.9-1.5-5 0-3.3 1.8-5.1 1.8-1.9 4.7-2.7 2.9-0.9 6.1-0.9 1.1 0 2 0.2 1 0.2 1.8 0.4 0.7 0.3 1.1 0.6 0-0.5-0.3-1.2-0.2-0.6-0.6-1-0.7-0.6-1.6-1-0.9-0.5-2.6-0.5-1.7 0-3 0.8-1.4 0.8-2.1 1.7l-7.5-4.8q1.2-1.6 3.1-2.7 2-1.2 4.5-1.8 2.5-0.7 5.2-0.7 4.5 0 7.3 1.4 2.7 1.3 4.1 3.9 0.6 1.2 1 2.6 0.4 1.5 0.6 3.2 0.1 1.1 0.2 2.4 0.1 1.3 0.1 2.6 0 2.1 0.3 2.8 0.4 0.6 1.1 0.6 0.6 0 1.1-0.1 0.5-0.2 0.7-0.4l2.7 6.5q-0.4 0.6-1.6 1.1-1.2 0.6-3.3 0.6-1.5 0-2.9-0.5-1.4-0.4-2.4-1.2-0.9-0.9-1.1-2.1-0.3 1-1.5 1.9-1.1 0.9-3.1 1.4-2 0.6-4.7 0.6zm2.2-7.2q0.9 0 1.9-0.3 1-0.2 1.8-0.6 0.8-0.4 1.2-0.7-0.1-0.2-0.2-0.8 0-0.6 0-0.8-0.5-0.2-1.7-0.4-1.2-0.2-2.3-0.2-1 0-2 0.2-1 0.1-1.7 0.5-0.7 0.4-0.7 1.2 0 0.6 0.5 1.1 0.4 0.4 1.2 0.6 0.8 0.2 2 0.2zm36.3 6.7q0-0.3-0.1-0.8 0-0.5 0-1.1 0-0.5 0-1-0.4 0.5-1.1 1.1-0.6 0.5-1.6 1-0.9 0.4-2.2 0.7-1.3 0.3-2.9 0.3-3 0-5.2-1.6-2.3-1.6-3.5-4.2-1.2-2.7-1.2-5.8 0-3.3 1.2-6.1 1.3-2.9 3.7-4.6 2.5-1.8 6.3-1.8 1.6 0 3 0.4 1.4 0.4 2.4 1 1 0.6 1.4 1.3 0.1-1.5 0.2-3.4 0.2-1.9 0.3-3.9 0.2-1.9 0.4-3.6 0.1-1.6 0.3-2.8 0.1-1.2 0.1-1.5 1.8 0 4 0.2 2.2 0.2 4 0.7-0.4 5.7-0.7 11.3-0.3 5.7-0.4 11.7-0.1 6-0.1 12.8-0.7 0-2.3 0-1.6 0-3.3-0.1-1.6-0.1-2.7-0.2zm-5.2-8.9q0.6 0 1.3 0 0.6-0.1 1.3-0.4 0.6-0.2 1.2-0.6 0.6-0.3 1.1-0.9 0-0.5 0-0.9 0-0.5 0-0.9 0-0.5 0-0.9 0-0.4 0-0.7-0.5-0.5-1.4-0.9-0.8-0.4-1.8-0.6-0.9-0.3-1.7-0.3-1.7 0-2.7 1.1-1 1-1 2.5 0 1.7 0.9 2.6 1 0.9 2.8 0.9zm31.5 9.4q-6.7 0-10.2-3.4-3.5-3.4-3.5-10 0-4.6 1.8-7.5 1.8-3 5-4.5 3.2-1.4 7.3-1.4 4.1 0 6.9 1.8 2.7 1.9 4.1 5.2 1.4 3.2 1.4 7.5 0 3.7-1.4 6.5-1.5 2.8-4.4 4.3-2.8 1.5-7 1.5zm-0.3-8.9q0.9 0 1.7-0.3 0.8-0.4 1.4-1 0.7-0.6 1-1.6 0.4-0.9 0.4-2.2 0-1.7-0.6-3-0.5-1.3-1.4-2-1-0.7-2.3-0.7-1.6 0-2.5 0.8-0.9 0.9-1.3 2.1-0.4 1.3-0.4 2.5 0 2.3 1 3.8 1 1.6 3 1.6z"/>
</svg>